<?xml version="1.0" standalone="no"?>
<!DOCTYPE svg PUBLIC "-//W3C//DTD SVG 20010904//EN"
 "http://www.w3.org/TR/2001/REC-SVG-20010904/DTD/svg10.dtd">
<svg version="1.0" xmlns="http://www.w3.org/2000/svg"
 width="1280.000000pt" height="1280.000000pt" viewBox="0 0 1280.000000 1280.000000"
 preserveAspectRatio="xMidYMid meet">

<g transform="translate(0.000000,1280.000000) scale(0.100000,-0.100000)"
fill="#000000" stroke="none">
<path d="M4910 11800 c-678 -192 -1316 -506 -1862 -916 -418 -313 -833 -731
-1149 -1154 -582 -779 -958 -1743 -1064 -2725 -97 -905 31 -1841 364 -2672
103 -256 276 -605 409 -825 470 -777 1128 -1434 1907 -1903 687 -414 1491
-685 2290 -770 481 -52 981 -39 1460 36 1024 162 1957 588 2758 1261 151 127
492 465 618 613 486 569 838 1191 1073 1895 88 263 131 426 108 408 -9 -7 -55
-45 -102 -84 -310 -258 -722 -516 -1070 -669 -538 -237 -1015 -361 -1605 -417
-188 -17 -625 -15 -825 6 -968 97 -1834 452 -2590 1060 -146 117 -530 496
-649 641 -259 313 -456 619 -627 970 -188 388 -323 788 -403 1195 -89 453
-111 976 -60 1435 13 124 63 417 94 555 27 121 96 367 120 429 8 20 35 95 60
166 174 487 476 1004 840 1438 31 37 53 67 48 66 -4 -1 -69 -18 -143 -39z
m-1726 -1970 c-39 -180 -77 -435 -101 -675 -23 -232 -22 -773 1 -1005 83 -824
324 -1583 726 -2285 567 -988 1455 -1802 2490 -2280 512 -237 1032 -390 1595
-469 282 -40 456 -51 785 -50 419 2 771 38 1145 118 88 19 161 33 163 31 7 -7
-277 -291 -388 -389 -363 -320 -673 -527 -1095 -732 -513 -249 -954 -379
-1545 -455 -209 -27 -701 -38 -902 -20 -673 60 -1190 201 -1763 480 -492 239
-893 526 -1280 915 -388 390 -658 761 -891 1226 -246 491 -388 944 -468 1486
-41 282 -49 424 -43 761 8 473 56 805 173 1217 236 823 655 1530 1263 2130 89
87 163 157 165 155 2 -2 -11 -74 -30 -159z"/>
</g>
</svg>
